<svg xmlns="http://www.w3.org/2000/svg" width="128" height="128" fill="none" viewBox="0 0 128 128"><g fill="#000" clip-path="url(#a)"><mask id="b" width="121" height="73" x="2" y="33" maskUnits="userSpaceOnUse"><path fill="#fff" d="M2 33h121v73H2z"/><path d="M52.76 37.72q-2.736 1.368-8.28 10.08-5.472 8.712-9.576 16.704l-4.176 8.064Q20.648 92.44 16.4 97.48q-6.408 7.416-11.664 7.416-1.656 0-1.656-.576 0-.216.288-.576.288-.288.576-.504l.216-.144q3.168-2.376 8.352-10.512 5.256-8.064 8.856-14.976l3.6-6.84q4.248-7.848 8.136-14.04 3.96-6.192 6.48-9.432t4.392-5.328q1.944-2.16 2.808-2.736l.864-.576q.216-.216.216-.432 0-.72-2.304-.72-2.16 0-4.32 1.224a14 14 0 0 0-3.6 2.808 39 39 0 0 0-2.592 3.312q-1.152 1.656-1.728 2.808l-.576 1.224q-.36 1.152-.864 1.152-1.224 0-1.224-3.168 0-5.472 4.752-8.352 4.752-2.952 11.736-2.952 6.768 0 6.768 1.224 0 .432-1.152.936m12.516 13.176-6.048 10.8h9.936q1.224 0 1.224.648 0 .72-.864 1.584-.792.864-1.656 1.008H57.356l-6.192 11.088q-.432 1.368-3.312 1.368-1.512 0-1.512-.648 0-.216.216-.648l6.264-11.16H42.812q-1.224 0-1.224-.72 0-.576.864-1.512.936-1.008 1.728-1.008h10.44l6.048-10.728q.864-1.44 3.24-1.44 1.584 0 1.584.792 0 .216-.216.576m47.261-3.6q-7.2 9.504-13.464 20.736t-8.928 17.712l-2.664 6.48q-1.152 2.448-2.016 2.448-.432 0-.792-.504a4.6 4.6 0 0 1-.432-1.008l-.144-.504q-.936-5.832-.936-12.24 0-5.112.72-14.832.72-9.792.72-14.256 0-.72-.288-.72-.144 0-.432.216a3 3 0 0 0-.36.432l-.144.216q-2.808 4.032-6.48 11.52-3.6 7.416-5.688 12.816-1.584 4.104-3.312 7.416-1.656 3.312-2.952 5.184t-2.376 3.096q-1.08 1.296-1.656 1.728l-.576.432q-.864.648-1.224.648-.432 0-.432-.72 0-6.768 20.808-40.896 1.728-2.808 3.096-5.184 1.44-2.376 1.944-3.312l.504-1.008q3.024-8.424 4.608-8.424 1.08 0 1.08 3.6.504 17.352.504 29.16 0 5.112-.072 6.984.144 1.152.648 1.152.576 0 1.44-1.656Q100.945 59.32 102.96 55q9.72-20.664 18-20.664 1.008 0 1.008.576 0 .432-.72 1.152-1.872 2.16-8.712 11.232"/></mask><path d="M52.76 37.72q-2.736 1.368-8.28 10.08-5.472 8.712-9.576 16.704l-4.176 8.064Q20.648 92.44 16.4 97.48q-6.408 7.416-11.664 7.416-1.656 0-1.656-.576 0-.216.288-.576.288-.288.576-.504l.216-.144q3.168-2.376 8.352-10.512 5.256-8.064 8.856-14.976l3.6-6.84q4.248-7.848 8.136-14.04 3.96-6.192 6.48-9.432t4.392-5.328q1.944-2.16 2.808-2.736l.864-.576q.216-.216.216-.432 0-.72-2.304-.72-2.16 0-4.32 1.224a14 14 0 0 0-3.6 2.808 39 39 0 0 0-2.592 3.312q-1.152 1.656-1.728 2.808l-.576 1.224q-.36 1.152-.864 1.152-1.224 0-1.224-3.168 0-5.472 4.752-8.352 4.752-2.952 11.736-2.952 6.768 0 6.768 1.224 0 .432-1.152.936m12.516 13.176-6.048 10.8h9.936q1.224 0 1.224.648 0 .72-.864 1.584-.792.864-1.656 1.008H57.356l-6.192 11.088q-.432 1.368-3.312 1.368-1.512 0-1.512-.648 0-.216.216-.648l6.264-11.16H42.812q-1.224 0-1.224-.72 0-.576.864-1.512.936-1.008 1.728-1.008h10.44l6.048-10.728q.864-1.44 3.24-1.44 1.584 0 1.584.792 0 .216-.216.576m47.261-3.6q-7.2 9.504-13.464 20.736t-8.928 17.712l-2.664 6.48q-1.152 2.448-2.016 2.448-.432 0-.792-.504a4.6 4.6 0 0 1-.432-1.008l-.144-.504q-.936-5.832-.936-12.24 0-5.112.72-14.832.72-9.792.72-14.256 0-.72-.288-.72-.144 0-.432.216a3 3 0 0 0-.36.432l-.144.216q-2.808 4.032-6.48 11.52-3.6 7.416-5.688 12.816-1.584 4.104-3.312 7.416-1.656 3.312-2.952 5.184t-2.376 3.096q-1.08 1.296-1.656 1.728l-.576.432q-.864.648-1.224.648-.432 0-.432-.72 0-6.768 20.808-40.896 1.728-2.808 3.096-5.184 1.44-2.376 1.944-3.312l.504-1.008q3.024-8.424 4.608-8.424 1.08 0 1.08 3.6.504 17.352.504 29.16 0 5.112-.072 6.984.144 1.152.648 1.152.576 0 1.44-1.656Q100.945 59.32 102.96 55q9.72-20.664 18-20.664 1.008 0 1.008.576 0 .432-.72 1.152-1.872 2.16-8.712 11.232"/><path d="m52.76 37.72-.4-.916-.024.01-.023.012zM44.48 47.8l-.844-.537-.003.005zm-9.576 16.704.888.46.002-.003zm-4.176 8.064-.888-.46-.004.008zM16.4 97.48l.757.654.008-.01zm-13.032 6.264-.707-.707-.04.039-.034.043zm.576-.504-.555-.832-.023.015-.022.017zm.216-.144.555.832.023-.015.022-.017zm8.352-10.512-.838-.546-.005.009zm8.856-14.976-.885-.466-.002.004zm3.6-6.84-.88-.476-.005.01zm8.136-14.04-.843-.539-.004.007zm6.48-9.432-.79-.614zm4.392-5.328-.743-.669-.002.002zm3.672-3.312.555.832.082-.055.07-.07zm-6.408.072.483.876.01-.006zm-3.6 2.808-.739-.674-.008.009-.008.009zm-4.32 6.12-.894-.447-.006.01-.005.011zm-.576 1.224-.905-.426-.029.062-.02.066zm2.664-10.368.518.855.01-.006zm17.352-.792-.447-.894c-1.114.557-2.373 1.77-3.764 3.463-1.416 1.724-3.054 4.053-4.913 6.974l.844.537.844.537c1.837-2.887 3.427-5.142 4.77-6.778 1.37-1.667 2.403-2.59 3.113-2.945zM44.48 47.8l-.847-.532q-5.492 8.744-9.619 16.78l.89.456.89.457q4.08-7.949 9.533-16.63zm-9.576 16.704-.888-.46-4.176 8.064.888.46.888.46 4.176-8.064zm-4.176 8.064-.892-.452c-6.733 13.275-11.458 21.466-14.2 24.72l.764.644.765.644c2.92-3.465 7.749-11.883 14.455-25.104zM16.4 97.48l-.757-.654c-4.233 4.899-7.864 7.07-10.907 7.07v2c3.965 0 8.11-2.773 12.42-7.762zm-11.664 7.416v-1q-.372-.001-.61-.029a1.6 1.6 0 0 1-.303-.059c-.053-.019.003-.011.082.072a.65.65 0 0 1 .175.44h-2c0 .831.656 1.227 1.085 1.376.438.153.988.2 1.571.2zm-1.656-.576h1a.6.6 0 0 1-.02.158q-.015.044-.014.037l.028-.045q.026-.04.075-.101l-.781-.625-.78-.625c-.124.154-.24.322-.33.502a1.6 1.6 0 0 0-.178.699zm.288-.576.707.707q.245-.244.469-.411l-.6-.8-.6-.8a6.5 6.5 0 0 0-.683.597zm.576-.504.555.832.216-.144-.555-.832-.555-.832-.216.144zm.216-.144.6.8c2.273-1.705 5.141-5.354 8.595-10.775l-.843-.537-.843-.537c-3.458 5.427-6.158 8.786-8.109 10.249zm8.352-10.512.838.546q5.277-8.096 8.905-15.06l-.887-.462-.887-.462q-3.573 6.86-8.807 14.892zm8.856-14.976.885.466 3.6-6.84-.885-.466-.885-.466-3.6 6.84zm3.6-6.84.88.476q4.235-7.825 8.103-13.984l-.847-.532-.847-.532q-3.908 6.225-8.168 14.096zm8.136-14.04.843.539c2.634-4.12 4.774-7.233 6.426-9.357l-.789-.614-.79-.614c-1.707 2.196-3.887 5.37-6.532 9.507zm6.48-9.432.79.614q2.506-3.223 4.347-5.274l-.745-.668-.745-.668q-1.903 2.125-4.436 5.382zm4.392-5.328.743.669c1.306-1.451 2.164-2.269 2.62-2.573l-.555-.832-.555-.832c-.696.464-1.71 1.47-2.996 2.899zm2.808-2.736.555.832.864-.576-.555-.832-.555-.832-.864.576zm.864-.576.707.707c.253-.253.509-.636.509-1.139h-2c0-.215.112-.31.077-.275zm.216-.432h1c0-.942-.8-1.345-1.278-1.494-.532-.167-1.231-.226-2.026-.226v2c.741 0 1.194.06 1.43.135.117.036.103.053.046 0a.58.58 0 0 1-.172-.415zm-2.304-.72v-1c-1.637 0-3.245.466-4.813 1.354l.493.87.493.87c1.312-.744 2.584-1.094 3.827-1.094zm-4.32 1.224-.483-.876a15 15 0 0 0-3.855 3.01l.738.674.739.674a13 13 0 0 1 3.344-2.606zm-3.6 2.808-.755-.656a40 40 0 0 0-2.658 3.397l.821.571.82.571a38 38 0 0 1 2.527-3.227zm-2.592 3.312-.82-.571c-.783 1.124-1.389 2.104-1.802 2.932l.894.447.894.447c.355-.708.9-1.6 1.655-2.684zm-1.728 2.808-.905-.426-.576 1.224.905.426.905.426.576-1.224zm-.576 1.224-.954-.298q-.077.24-.144.385a1 1 0 0 1-.098.177c-.019.025-.006 0 .05-.036a.55.55 0 0 1 .282-.076v2c.602 0 1.02-.358 1.268-.688.243-.324.416-.736.55-1.166zm-.864 1.152v-1a.2.2 0 0 1 .118.045c.01.01-.038-.029-.103-.197-.136-.353-.239-.995-.239-2.016h-2c0 1.092.101 2.033.373 2.736.139.36.345.718.662.991.337.29.748.441 1.189.441zm-1.224-3.168h1c0-3.292 1.396-5.755 4.27-7.497l-.518-.855-.518-.855c-3.462 2.098-5.234 5.203-5.234 9.207zm4.752-8.352.528.85c2.974-1.848 6.692-2.802 11.208-2.802v-2c-4.796 0-8.902 1.014-12.264 3.103zm11.736-2.952v1c2.242 0 3.861.102 4.898.29.528.096.828.2.97.277.159.087-.1 0-.1-.343h2c0-.752-.54-1.194-.946-1.414-.422-.23-.968-.38-1.568-.488-1.219-.22-2.984-.322-5.254-.322zm6.768 1.224h-1a.6.6 0 0 1 .086-.319c.027-.042.038-.042-.005-.007-.09.073-.284.193-.634.346l.401.916.4.916c.419-.183.8-.387 1.095-.626.264-.214.657-.62.657-1.226zm11.364 14.112-.858-.514-.008.012-.007.013zm-6.048 10.8-.873-.489-.833 1.489h1.706zm10.296 2.232-.707-.707-.016.015-.014.016zm-1.656 1.008v1h.082l.082-.014zm-10.512 0v-1h-.587l-.286.512zm-6.192 11.088-.873-.488-.05.09-.031.097zm-4.608.072-.872-.49-.012.021-.01.022zm6.264-11.16.872.49.836-1.49H52.82zm-10.368-2.232-.733-.68-.002.002zm12.168-1.008v1h.584l.287-.509zm6.048-10.728-.858-.515-.007.012-.006.012zm4.608-.072-.873-.489-6.048 10.8.873.489.872.489 6.048-10.8zm-6.048 10.8v1h9.936v-2h-9.936zm9.936 0v1c.162 0 .28.011.361.025.084.015.105.03.089.02a.48.48 0 0 1-.226-.398h2a1.5 1.5 0 0 0-.23-.815 1.6 1.6 0 0 0-.609-.554c-.42-.222-.922-.278-1.385-.278zm1.224.648h-1c0 .081-.06.366-.572.877l.708.707.707.707c.64-.64 1.157-1.412 1.157-2.291zm-.864 1.584-.737-.676c-.428.467-.792.649-1.084.698l.165.986.164.986c.86-.143 1.6-.633 2.229-1.318zm-1.656 1.008v-1H57.356v2h10.512zm-10.512 0-.873-.488-6.192 11.088.873.488.873.488 6.192-11.088zm-6.192 11.088-.954-.301c-.033.105-.12.257-.472.403-.38.157-.987.266-1.886.266v2c1.02 0 1.925-.119 2.65-.418.75-.31 1.36-.842 1.615-1.649zm-3.312 1.368v-1c-.22 0-.39-.012-.52-.03a1 1 0 0 1-.22-.051c-.021-.009.041.013.111.103a.55.55 0 0 1 .117.33h-2c0 .318.098.631.305.897.196.252.447.409.679.508.44.19.983.243 1.528.243zm-1.512-.648h1a.4.4 0 0 1-.006.075q-.003.007.008-.029c.017-.049.05-.13.108-.247l-.894-.447-.895-.447c-.148.296-.321.696-.321 1.095zm.216-.648.872.49 6.264-11.16-.872-.49-.872-.49-6.264 11.16zm6.264-11.16v-1H42.812v2H52.82zm-10.008 0v-1a2 2 0 0 1-.343-.026c-.076-.015-.09-.028-.068-.016a.4.4 0 0 1 .133.144.4.4 0 0 1 .054.178h-2c0 .588.284 1.1.799 1.402.432.254.951.318 1.425.318zm-1.224-.72h1c0 .049-.014.002.084-.17a4 4 0 0 1 .514-.664l-.734-.678-.735-.678a5.8 5.8 0 0 0-.782 1.028c-.19.332-.347.729-.347 1.162zm.864-1.512.732.68c.566-.609.893-.688.996-.688v-2c-.953 0-1.779.593-2.461 1.328zm1.728-1.008v1h10.44v-2H44.18zm10.44 0 .87.491 6.05-10.727-.871-.491-.871-.491-6.048 10.728zm6.048-10.728.857.514c.326-.542.989-.954 2.383-.954v-2c-1.775 0-3.271.548-4.098 1.925zm3.24-1.44v1c.225 0 .398.014.528.036a.8.8 0 0 1 .212.056c.014.007-.036-.015-.087-.092a.4.4 0 0 1-.07-.208h2c0-.307-.079-.62-.266-.901a1.74 1.74 0 0 0-.682-.587c-.473-.237-1.056-.304-1.635-.304zm1.584.792h-1q.002-.07.008-.093.006-.021.001-.006l-.025.057-.058.104.858.514.857.514c.164-.273.359-.662.359-1.09zm47.045-3.024.797.604.001-.002zM99.073 68.032l-.873-.487zm-8.928 17.712-.925-.38zm-2.664 6.48.905.426.01-.023.01-.023zm-2.808 1.944-.868.496.025.044.03.041zm-.576-1.512-.987.158.009.06.016.057zm-.216-27.072.997.074zm0-14.76-.6-.8-.057.043-.05.05zm-.36.432-.832-.555zm-.144.216.82.572.006-.009.006-.008zm-6.48 11.52-.898-.44-.002.003zm-5.688 12.816-.933-.36zm-3.312 7.416-.887-.463-.004.008-.004.008zm-2.952 5.184.822.57zm-2.376 3.096-.75-.662-.01.011-.008.01zm-1.656 1.728.6.8zm-.576.432-.6-.8zm19.152-40.968-.852-.524-.002.003zm3.096-5.184-.855-.518-.006.01-.006.009zm1.944-3.312.88.474.007-.013.007-.014zm.504-1.008.894.447.027-.053.02-.056zm5.688-4.824h-1v.029zm.432 36.144-1-.038-.003.081.01.081zm2.088-.504-.886-.465v.002zM102.96 55l-.905-.426-.001.003zm18.288-18.936-.707-.707-.025.025-.024.027zm-8.712 11.232-.797-.604q-7.245 9.564-13.54 20.853l.873.487.873.487q6.233-11.175 13.388-20.62zM99.073 68.032l-.873-.487c-4.183 7.5-7.181 13.444-8.98 17.819l.925.38.925.38c1.753-4.265 4.706-10.128 8.876-17.605zm-8.928 17.712-.925-.38-2.664 6.48.925.38.925.38 2.664-6.48zm-2.664 6.48-.905-.426c-.37.786-.688 1.312-.947 1.626-.294.357-.348.248-.164.248v2c.76 0 1.33-.517 1.708-.976.413-.502.814-1.2 1.213-2.046zm-2.016 2.448v-1a.3.3 0 0 1 .123.03c.003.002-.005-.002-.023-.02a1 1 0 0 1-.078-.095l-.814.581-.814.581c.341.478.87.923 1.606.923zm-.792-.504.868-.496a3.6 3.6 0 0 1-.339-.787l-.961.275-.962.275c.12.42.298.83.526 1.23zm-.432-1.008.961-.275-.144-.504-.961.275-.962.275.144.504zm-.144-.504.987-.159q-.923-5.746-.923-12.081h-2q0 6.481.948 12.398zm-.936-12.24h1c0-3.37.238-8.285.717-14.758l-.997-.074-.997-.074c-.48 6.487-.723 11.46-.723 14.906zm.72-14.832.997.073c.48-6.53.723-11.314.723-14.329h-2c0 2.937-.238 7.657-.717 14.183zm.72-14.256h1c0-.277-.024-.611-.144-.911a1.3 1.3 0 0 0-.378-.532 1.2 1.2 0 0 0-.766-.277v2a.8.8 0 0 1-.514-.187.7.7 0 0 1-.199-.262c-.016-.04-.013-.052-.008-.014q.008.051.009.183zm-.288-.72v-1a1.4 1.4 0 0 0-.627.16 2.7 2.7 0 0 0-.405.256l.6.8.6.8q.048-.036.076-.053l.023-.015a.7.7 0 0 1-.267.052zm-.432.216-.707-.707a4 4 0 0 0-.485.584l.832.555.832.555q.08-.121.235-.28zm-.36.432-.832-.555-.144.216.832.555.832.555.144-.216zm-.144.216-.82-.572c-1.915 2.75-4.1 6.64-6.558 11.652l.898.44.898.44c2.439-4.973 4.573-8.761 6.403-11.388zm-6.48 11.52-.9-.437q-3.612 7.44-5.72 12.892l.932.361.933.36q2.067-5.346 5.654-12.74zm-5.688 12.816-.933-.36q-1.568 4.06-3.266 7.313l.887.463.886.463q1.758-3.371 3.359-7.519zm-3.312 7.416-.895-.447c-1.094 2.188-2.054 3.87-2.88 5.062l.823.569.822.57c.902-1.304 1.91-3.08 3.024-5.307zm-2.952 5.184-.822-.57q-1.275 1.84-2.304 3.004l.75.662.75.662q1.131-1.284 2.448-3.189zm-2.376 3.096-.768-.64c-.719.862-1.206 1.357-1.488 1.568l.6.8.6.8c.486-.365 1.103-1.022 1.824-1.888zm-1.656 1.728-.6-.8-.576.432.6.8.6.8.576-.432zm-.576.432-.6-.8c-.267.2-.466.328-.606.402a1 1 0 0 1-.123.057c-.018.006.023-.011.105-.011v2c.373 0 .716-.152.954-.278.268-.142.56-.338.87-.57zm-1.224.648v-1a.64.64 0 0 1 .533.306c.039.063.045.104.043.093a1 1 0 0 1-.008-.119h-2c0 .307.04.704.25 1.055.26.431.7.665 1.182.665zm-.432-.72h1c0-.931.373-2.482 1.235-4.737.849-2.222 2.132-5.025 3.858-8.418q5.174-10.171 15.569-27.22l-.854-.521-.854-.52Q68.222 69.253 62.992 79.53c-1.742 3.423-3.06 6.296-3.945 8.61-.872 2.281-1.366 4.126-1.366 5.451zm20.808-40.896.852.524a209 209 0 0 0 3.11-5.209l-.866-.499-.867-.499a207 207 0 0 1-3.08 5.159zm3.096-5.184.855.518c.96-1.582 1.62-2.707 1.97-3.356l-.881-.474-.88-.474c-.323.599-.959 1.682-1.92 3.268zm1.944-3.312.894.447.504-1.008-.894-.447-.895-.447-.504 1.008zm.504-1.008.941.338c1.003-2.793 1.87-4.841 2.6-6.176.368-.672.676-1.117.92-1.381.276-.3.318-.205.147-.205v-2c-.7 0-1.245.445-1.617.848-.404.438-.804 1.046-1.204 1.778-.806 1.473-1.715 3.637-2.728 6.46zm4.608-8.424v1a.4.4 0 0 1-.27-.106c-.004-.004.053.065.122.293.137.457.228 1.239.228 2.413h2c0-1.226-.09-2.244-.312-2.987-.112-.371-.279-.753-.552-1.057a1.62 1.62 0 0 0-1.216-.556zm1.08 3.6-1 .029q.504 17.343.504 29.131h2q0-11.828-.504-29.189zm.504 29.16h-1c0 3.41-.024 5.72-.071 6.946l.999.038 1 .038c.048-1.27.072-3.616.072-7.022zm-.072 6.984-.992.124c.053.43.152.87.354 1.23.222.394.644.798 1.286.798v-2a.6.6 0 0 1 .341.107.5.5 0 0 1 .11.106l.007.009-.005-.008-.01-.025a1 1 0 0 1-.031-.098 3 3 0 0 1-.068-.367zm.648 1.152v1c.655 0 1.129-.443 1.403-.758.314-.362.62-.855.924-1.435l-.887-.463-.887-.463c-.273.524-.495.859-.66 1.049q-.058.066-.093.097l-.032.027s.083-.054.232-.054zm1.44-1.656.885.465c5.133-9.787 8.385-16.145 9.741-19.05l-.906-.423-.906-.423c-1.333 2.855-4.56 9.169-9.7 18.966zM102.96 55l.905.426c3.223-6.852 6.297-11.924 9.209-15.267 2.931-3.364 5.558-4.823 7.886-4.823v-2c-3.193 0-6.325 1.986-9.394 5.51-3.088 3.544-6.254 8.804-9.511 15.728zm18-20.664v1c.123 0 .205.009.254.018.05.01.043.016.006-.006a.5.5 0 0 1-.179-.184.5.5 0 0 1-.073-.252h2c0-.554-.279-1.028-.756-1.3-.393-.225-.854-.276-1.252-.276zm1.008.576h-1c0-.122.045-.142-.028-.026-.065.104-.189.26-.399.47l.707.708.707.707c.27-.27.506-.546.681-.825.167-.268.332-.624.332-1.034zm-.72 1.152-.756-.655c-1.275 1.472-4.202 5.247-8.755 11.285l.799.602.798.602c4.568-6.058 7.449-9.77 8.67-11.18z" mask="url(#b)"/></g><defs><clipPath id="a"><path fill="#fff" d="M0 0h128v128H0z"/></clipPath></defs></svg>